<?xml version="1.0" encoding="UTF-8"?>
<svg width="632px" height="307px" viewBox="0 0 632 307" version="1.1" xmlns="http://www.w3.org/2000/svg" xmlns:xlink="http://www.w3.org/1999/xlink">

    <title>LineWeb</title>
    <desc>Created with Sketch.</desc>
    <g id="Symbols" stroke="none" stroke-width="1" fill="none" fill-rule="evenodd" opacity="0.15">
        <g id="Line" transform="translate(-1.000000, -2.000000)">
            <g id="LineWeb" transform="translate(166.500000, -107.000000) rotate(-90.000000) translate(-166.500000, 107.000000) translate(-359.500000, -695.500000)">
                <path d="M182.794272,594.64975 C198.105262,548.938426 215.604966,492.885052 208.14778,450.527678 C182.747294,306.251649 22.374284,329.335937 22,329.383663 C22.4551479,329.32516 22.7085212,329.282822 22.753959,329.275894" id="Stroke-1" stroke="#3D5AFE" stroke-width="1.05721" stroke-linecap="round" stroke-linejoin="round"></path>
                <path d="M153.005206,759.77777 C152.869663,730.418971 155.381062,701.180259 160.534014,673" id="Stroke-3" stroke="#3D5AFE" stroke-width="1.05721" stroke-linecap="round" stroke-linejoin="round"></path>
                <path d="M137,242 C174.781895,253.283496 207.763558,271.70982 235.030843,296.767065 C269.115335,328.090353 294.314817,369.923504 309.928469,421.103374 C330.049701,487.053863 304.38506,563.67741 283.763242,625.245518 C275.711514,649.284338 268.107233,671.988353 264.829552,689.913547 C257.231432,731.468036 256.911057,776.053935 263.903083,818.850086 C272.081113,868.91377 289.845742,915.971446 316.703318,958.717561 C347.550176,1007.81209 390.119209,1050.54281 443.228266,1085.72194 C503.323189,1125.52825 577.424498,1155.92549 663.473631,1176.0692" id="Stroke-5" stroke="#3D5AFE" stroke-width="1.05721" stroke-linecap="round" stroke-linejoin="round"></path>
                <path d="M40,42.510079 C40,42.510079 354.660439,19.013187 468.684609,290.972547 C552.258539,490.303539 490.668791,610.622345 478.713265,688.618417 C460.359485,808.349108 406.112943,1049.95665 1051.57193,967.469655" id="Stroke-13" stroke="#3D5AFE" stroke-width="1.06799" stroke-linecap="round" stroke-linejoin="round"></path>
                <path d="M96,391 C109.084539,395.42164 121.393555,402.976302 132.866208,414.64546 C144.184064,426.157583 151.549605,438.270137 155.90778,450.970806 C160.265956,463.671475 161.615997,476.960259 160.902085,490.824072 C160.187403,504.687885 157.408767,519.126727 153.50882,534.127511 C149.608873,549.128295 144.587613,564.691791 139.389994,580.804144 C133.092627,600.322791 126.585783,620.491906 121.403567,641.406173 C116.22135,662.320439 112.36299,683.979086 111.362589,706.476799" id="Stroke-21" stroke="#3D5AFE" stroke-width="1.05721" stroke-linecap="round" stroke-linejoin="round"></path>
                <path d="M201.795672,535.088672 C200.106003,535.460478 198.438668,534.415881 198.072085,532.755456 C197.704733,531.095032 198.777526,529.447694 200.467965,529.075118 C202.157634,528.703312 203.82497,529.74791 204.191552,531.408334 C204.558135,533.068759 203.486112,534.716866 201.795672,535.088672" id="Fill-47" fill="#3D5AFE"></path>
                <path d="M196.795672,556.088672 C195.106003,556.460478 193.438668,555.416651 193.072085,553.755456 C192.704733,552.095802 193.777526,550.447694 195.467965,550.075118 C197.157634,549.703312 198.82497,550.74791 199.191552,552.408334 C199.558135,554.068759 198.486112,555.716866 196.795672,556.088672" id="Fill-49" fill="#3D5AFE"></path>
                <path d="M199.796177,546.088672 C198.105738,546.460478 196.439173,545.416651 196.07182,543.755456 C195.705237,542.095802 196.778031,540.447694 198.4677,540.075118 C200.158139,539.703312 201.825474,540.74791 202.192057,542.408334 C202.55864,544.068759 201.485846,545.716866 199.796177,546.088672" id="Fill-51" fill="#3D5AFE"></path>
                <path d="M312.645552,518.043094 C310.937399,517.759043 309.323973,518.909101 309.042105,520.611863 C308.761007,522.313856 309.916975,523.924245 311.625897,524.208295 C313.334049,524.492345 314.947476,523.342288 315.228574,521.639525 C315.510442,519.936763 314.353704,518.327144 312.645552,518.043094" id="Fill-59" fill="#3D5AFE"></path>
                <path d="M315.64574,494.043094 C313.937588,493.759043 312.324162,494.909101 312.042294,496.611863 C311.760426,498.313856 312.917163,499.924245 314.626086,500.208295 C316.334238,500.492345 317.947664,499.342288 318.228762,497.639525 C318.51063,495.937532 317.353893,494.327144 315.64574,494.043094" id="Fill-61" fill="#3D5AFE"></path>
                <path d="M314.645741,507.043094 C312.936819,506.759043 311.324163,507.909101 311.042295,509.611863 C310.760426,511.313856 311.917164,512.924245 313.625317,513.208295 C315.334239,513.492345 316.947665,512.342288 317.228763,510.639525 C317.510631,508.936763 316.353893,507.327144 314.645741,507.043094" id="Fill-63" fill="#3D5AFE"></path>
                <path d="M264.739815,833.02642 C263.017031,833.248888 261.802533,834.816168 262.026641,836.527399 C262.250749,838.238629 263.828749,839.444881 265.551534,839.222413 C267.274319,839.000715 268.488817,837.433435 268.264708,835.721435 C268.0406,834.010974 266.4626,832.803953 264.739815,833.02642" id="Fill-65" fill="#3D5AFE"></path>
                <path d="M261.739815,809.02642 C260.017031,809.248888 258.802533,810.816168 259.026641,812.527399 C259.250749,814.238629 260.828749,815.444881 262.551534,815.222413 C264.274319,814.999945 265.488817,813.432665 265.264708,811.721435 C265.0406,810.010974 263.4626,808.803953 261.739815,809.02642" id="Fill-67" fill="#3D5AFE"></path>
                <path d="M263.739815,821.02642 C262.017031,821.248888 260.802533,822.816168 261.026641,824.527399 C261.250749,826.238629 262.828749,827.444881 264.551534,827.222413 C266.274319,827.000715 267.488817,825.433435 267.264708,823.721435 C267.0406,822.010974 265.4626,820.803953 263.739815,821.02642" id="Fill-69" fill="#3D5AFE"></path>
                <path d="M208.653637,827.949144 C200.762867,779.649036 201.138691,729.255885 209.738753,682.215914 C213.647942,660.835928 221.794396,636.514597 230.419101,610.766086 C248.811388,555.853532 283.214715,475.033892 241.752361,399" id="Stroke-77" stroke="#3D5AFE" stroke-width="1.05721" stroke-linecap="round" stroke-linejoin="round"></path>
                <path d="M312,811 C319.112937,854.541302 334.554849,895.455331 357.896003,932.605885" id="Stroke-81" stroke="#3D5AFE" stroke-width="1.05721" stroke-linecap="round" stroke-linejoin="round"></path>
                <path d="M188,208 C285.639616,247.98182 382.236474,337.087417 360.263845,534.687935 C355.933394,573.631317 340.955101,609.617957 330.198671,641.731813" id="Stroke-83" stroke="#3D5AFE" stroke-width="1.05721" stroke-linecap="round" stroke-linejoin="round"></path>
                <path d="M399,907 C422.345004,944.155173 455.147997,976.882547 496.499452,1004.27301 C546.809081,1037.59773 610.151649,1063.35086 684.768176,1080.81881" id="Stroke-85" stroke="#3D5AFE" stroke-width="1.05721" stroke-linecap="round" stroke-linejoin="round"></path>
                <path d="M408.668318,540 C406.758391,596.802374 338.457715,706.734482 360.306353,803.68341" id="Stroke-87" stroke="#3D5AFE" stroke-width="1.05721" stroke-linecap="round" stroke-linejoin="round"></path>
            </g>
        </g>
    </g>
</svg>