<svg id="Layer_1" height="512" viewBox="0 0 128 128" width="512" xmlns="http://www.w3.org/2000/svg" xmlns:xlink="http://www.w3.org/1999/xlink" data-name="Layer 1"><linearGradient id="linear-gradient" gradientUnits="userSpaceOnUse" x1="119.91" x2="22.141" y1="119.91" y2="22.141"><stop offset="0" stop-color="#30ade0"/><stop offset="1" stop-color="#85c646"/></linearGradient><path d="m76.98 81.081q-3.512 3.333-10.18 4.041v6.608h-4.835v-6.549a33.053 33.053 0 0 1 -8.265-1.593 17.99 17.99 0 0 1 -6.194-3.3l2.655-5.959a19.509 19.509 0 0 0 5.313 2.971 23.576 23.576 0 0 0 6.491 1.5v-11.8a43.378 43.378 0 0 1 -6.992-2.2 12.1 12.1 0 0 1 -4.691-3.54 9.491 9.491 0 0 1 -1.882-6.169 10.9 10.9 0 0 1 3.481-8.142q3.48-3.363 10.089-4.012v-6.667h4.83v6.549a27.65 27.65 0 0 1 6.461 1.121 21.321 21.321 0 0 1 5.517 2.477l-2.419 5.959a24.575 24.575 0 0 0 -9.559-3.185v11.918a45.321 45.321 0 0 1 7.051 2.183 12.13 12.13 0 0 1 4.72 3.51 9.4 9.4 0 0 1 1.917 6.166 10.768 10.768 0 0 1 -3.508 8.113zm-19.44-23.217a13.283 13.283 0 0 0 4.425 2.006v-10.5a8.169 8.169 0 0 0 -4.484 1.888 4.635 4.635 0 0 0 -1.475 3.481 3.747 3.747 0 0 0 1.534 3.125zm13.894 19a4.347 4.347 0 0 0 1.5-3.363 3.839 3.839 0 0 0 -1.594-3.215 13.658 13.658 0 0 0 -4.54-2.038v10.443a8.8 8.8 0 0 0 4.634-1.829zm-55.7-44.183a1.75 1.75 0 0 0 2.435-.44 56.171 56.171 0 0 1 4.723-5.9 1.75 1.75 0 1 0 -2.581-2.365 59.669 59.669 0 0 0 -5.011 6.267 1.751 1.751 0 0 0 .438 2.436zm96.069 71 7.958-4.381a1.751 1.751 0 0 0 -.391-3.224l-4.747-1.276a59.258 59.258 0 0 0 -86.736-77.779 1.75 1.75 0 0 0 2.135 2.779 55.226 55.226 0 0 1 33.978-11.55 55.75 55.75 0 0 1 47.085 85.6l-20.618-5.527a1.75 1.75 0 0 0 -2.144 2.144l1.337 4.985a1.75 1.75 0 0 0 3.381-.906l-.552-2.057 21.779 5.839-6.189 3.407a1.75 1.75 0 0 0 -.393 2.771l11.339 11.34-3.179 3.179-11.34-11.339a1.748 1.748 0 0 0 -2.77.393l-3.408 6.188-2.1-7.848a1.75 1.75 0 0 0 -3.381.906l1.008 3.76a55.769 55.769 0 0 1 -80.819-69.722 1.75 1.75 0 0 0 -3.2-1.422 59.267 59.267 0 0 0 84.964 74.682l1.273 4.75a1.75 1.75 0 0 0 3.223.391l4.382-7.956 10.93 10.929a1.749 1.749 0 0 0 2.475 0l5.654-5.654a1.749 1.749 0 0 0 0-2.475zm-47.803-78.281a1.75 1.75 0 0 0 1.75-1.75v-8.525a1.75 1.75 0 0 0 -3.5 0v8.523a1.75 1.75 0 0 0 1.75 1.752zm29.771 11.3 6.029-6.022a1.75 1.75 0 1 0 -2.477-2.478l-6.023 6.029a1.75 1.75 0 1 0 2.471 2.471zm19.1 29.046a1.75 1.75 0 0 0 0-3.5h-8.523a1.75 1.75 0 0 0 0 3.5zm-50.621 47.129a1.75 1.75 0 0 0 3.5 0v-8.523a1.75 1.75 0 0 0 -3.5 0zm-34.05-13.075a1.748 1.748 0 0 0 2.474 0l6.026-6.029a1.75 1.75 0 0 0 -2.471-2.471l-6.029 6.022a1.749 1.749 0 0 0 0 2.478zm-13.075-34.05h8.523a1.75 1.75 0 0 0 0-3.5h-8.523a1.75 1.75 0 0 0 0 3.5zm19.104-29.05a1.75 1.75 0 0 0 2.471-2.471l-6.023-6.029a1.75 1.75 0 1 0 -2.477 2.478z" fill="url(#linear-gradient)"/></svg>