<svg aria-hidden="true" style="position: absolute; width: 0; height: 0; overflow: hidden;" version="1.1" xmlns="http://www.w3.org/2000/svg" xmlns:xlink="http://www.w3.org/1999/xlink">
	<defs>
	    <symbol id="icon-call-answer" viewBox="0 0 32 32">
			<title>call-answer</title>
			<path d="M31.283 25.289l-4.942-4.942c-0.984-0.98-2.614-0.951-3.633 0.068l-2.49 2.489c-0.157-0.087-0.32-0.177-0.491-0.273-1.572-0.871-3.724-2.065-5.989-4.331-2.271-2.271-3.466-4.426-4.34-5.999-0.092-0.167-0.181-0.327-0.268-0.48l2.492-2.491c1.020-1.020 1.048-2.65 0.066-3.633l-4.942-4.943c-0.982-0.982-2.613-0.952-3.633 0.068l-1.393 1.401 0.038 0.038c-0.467 0.596-0.857 1.283-1.148 2.024-0.268 0.705-0.434 1.379-0.511 2.053-0.653 5.41 1.82 10.354 8.529 17.063 9.274 9.273 16.747 8.573 17.070 8.538 0.702-0.084 1.375-0.252 2.059-0.517 0.735-0.287 1.422-0.677 2.017-1.143l0.030 0.027 1.411-1.382c1.018-1.020 1.047-2.65 0.066-3.635z"></path>
		</symbol>
		<symbol id="icon-telephone" viewBox="0 0 32 32">
			<title>telephone</title>
			<path d="M6.521 21.271c3.156 3.773 6.956 6.743 11.292 8.845 1.651 0.782 3.859 1.711 6.319 1.87 0.152 0.007 0.298 0.013 0.451 0.013 1.651 0 2.977-0.57 4.058-1.744 0.007-0.007 0.020-0.020 0.027-0.033 0.385-0.464 0.822-0.882 1.28-1.326 0.312-0.298 0.63-0.61 0.935-0.928 1.412-1.472 1.412-3.342-0.013-4.767l-3.985-3.985c-0.676-0.703-1.485-1.074-2.334-1.074s-1.664 0.371-2.361 1.068l-2.374 2.374c-0.219-0.126-0.444-0.239-0.656-0.345-0.265-0.133-0.511-0.259-0.729-0.398-2.162-1.373-4.124-3.163-6.001-5.464-0.948-1.2-1.585-2.208-2.029-3.236 0.623-0.564 1.207-1.154 1.77-1.731 0.199-0.206 0.404-0.411 0.61-0.617 0.716-0.716 1.101-1.545 1.101-2.387s-0.378-1.671-1.101-2.387l-1.976-1.976c-0.232-0.232-0.451-0.458-0.676-0.69-0.438-0.451-0.895-0.915-1.346-1.333-0.683-0.67-1.485-1.021-2.334-1.021-0.842 0-1.651 0.351-2.361 1.028l-2.48 2.48c-0.902 0.902-1.412 1.996-1.518 3.262-0.126 1.585 0.166 3.269 0.922 5.305 1.16 3.15 2.911 6.074 5.51 9.197zM1.707 6.909c0.080-0.882 0.418-1.618 1.054-2.254l2.467-2.467c0.385-0.371 0.809-0.564 1.22-0.564 0.404 0 0.816 0.192 1.194 0.577 0.444 0.411 0.862 0.842 1.313 1.3 0.225 0.232 0.458 0.464 0.69 0.703l1.976 1.976c0.411 0.411 0.623 0.829 0.623 1.24s-0.212 0.829-0.623 1.24c-0.206 0.206-0.411 0.418-0.617 0.623-0.617 0.623-1.194 1.213-1.83 1.777-0.013 0.013-0.020 0.020-0.033 0.033-0.55 0.55-0.464 1.074-0.332 1.472 0.007 0.020 0.013 0.033 0.020 0.053 0.511 1.227 1.22 2.394 2.327 3.786 1.989 2.453 4.085 4.356 6.392 5.822 0.285 0.186 0.59 0.332 0.875 0.477 0.265 0.133 0.511 0.259 0.729 0.398 0.027 0.013 0.046 0.027 0.073 0.040 0.219 0.113 0.431 0.166 0.643 0.166 0.53 0 0.875-0.338 0.988-0.451l2.48-2.48c0.385-0.385 0.802-0.59 1.213-0.59 0.504 0 0.915 0.312 1.174 0.59l3.998 3.992c0.796 0.796 0.789 1.658-0.020 2.5-0.279 0.298-0.57 0.584-0.882 0.882-0.464 0.451-0.948 0.915-1.386 1.439-0.763 0.822-1.671 1.207-2.845 1.207-0.113 0-0.232-0.007-0.345-0.013-2.175-0.139-4.197-0.988-5.716-1.711-4.124-1.996-7.745-4.827-10.748-8.421-2.473-2.977-4.138-5.749-5.238-8.719-0.683-1.823-0.942-3.289-0.835-4.622z"></path>
		</symbol>
		<symbol id="icon-email" viewBox="0 0 32 32">
			<title>email</title>
			<path d="M29.188 3.813h-26.375c-1.549 0-2.813 1.262-2.813 2.813v18.75c0 1.545 1.258 2.813 2.813 2.813h26.375c1.545 0 2.813-1.258 2.813-2.813v-18.75c0-1.545-1.258-2.813-2.813-2.813zM28.799 5.688l-12.739 12.74-12.85-12.74h25.589zM1.875 24.987v-17.982l9.030 8.953-9.030 9.030zM3.201 26.313l9.036-9.036 3.166 3.139c0.367 0.363 0.958 0.362 1.323-0.003l3.087-3.087 8.987 8.987h-25.598zM30.125 24.987l-8.987-8.987 8.987-8.987v17.973z"></path>
		</symbol>
		<symbol id="icon-placeholder" viewBox="0 0 32 32">
			<title>placeholder</title>
			<path d="M16 0c-6.203 0-11.25 5.047-11.25 11.25 0 2.096 0.581 4.141 1.679 5.916l8.93 14.391c0.171 0.276 0.472 0.443 0.797 0.443 0.003 0 0.005 0 0.007 0 0.327-0.003 0.629-0.175 0.797-0.456l8.703-14.53c1.038-1.737 1.587-3.73 1.587-5.764 0-6.203-5.047-11.25-11.25-11.25zM24.054 16.051l-7.912 13.21-8.119-13.084c-0.915-1.477-1.41-3.181-1.41-4.928 0-5.169 4.218-9.387 9.387-9.387s9.381 4.218 9.381 9.387c0 1.695-0.463 3.355-1.327 4.801z"></path>
			<path d="M16 5.625c-3.102 0-5.625 2.523-5.625 5.625 0 3.082 2.482 5.625 5.625 5.625 3.181 0 5.625-2.577 5.625-5.625 0-3.102-2.523-5.625-5.625-5.625zM16 15.012c-2.079 0-3.762-1.69-3.762-3.762 0-2.068 1.695-3.763 3.762-3.763s3.756 1.695 3.756 3.763c0 2.043-1.645 3.762-3.756 3.762z"></path>
		</symbol>
		<symbol id="icon-facebook-logo" viewBox="0 0 32 32">
			<title>facebook-logo</title>
			<path d="M23.999 0.007l-4.15-0.007c-4.662 0-7.675 3.091-7.675 7.875v3.631h-4.172c-0.361 0-0.652 0.292-0.652 0.653v5.261c0 0.361 0.292 0.652 0.652 0.652h4.172v13.275c0 0.361 0.292 0.653 0.652 0.653h5.444c0.361 0 0.652-0.292 0.652-0.652v-13.275h4.878c0.361 0 0.652-0.292 0.652-0.652l0.002-5.261c0-0.173-0.069-0.339-0.191-0.461s-0.289-0.191-0.462-0.191h-4.88v-3.078c0-1.479 0.353-2.23 2.28-2.23l2.795-0.001c0.36 0 0.652-0.292 0.652-0.652v-4.885c0-0.36-0.292-0.652-0.651-0.652z"></path>
		</symbol>
		<symbol id="icon-twitter" viewBox="0 0 32 32">
			<title>twitter</title>
			<path d="M32 6.078c-1.19 0.522-2.458 0.868-3.78 1.036 1.36-0.812 2.398-2.088 2.886-3.626-1.268 0.756-2.668 1.29-4.16 1.588-1.204-1.282-2.92-2.076-4.792-2.076-3.632 0-6.556 2.948-6.556 6.562 0 0.52 0.044 1.020 0.152 1.496-5.454-0.266-10.28-2.88-13.522-6.862-0.566 0.982-0.898 2.106-0.898 3.316 0 2.272 1.17 4.286 2.914 5.452-1.054-0.020-2.088-0.326-2.964-0.808 0 0.020 0 0.046 0 0.072 0 3.188 2.274 5.836 5.256 6.446-0.534 0.146-1.116 0.216-1.72 0.216-0.42 0-0.844-0.024-1.242-0.112 0.85 2.598 3.262 4.508 6.13 4.57-2.232 1.746-5.066 2.798-8.134 2.798-0.538 0-1.054-0.024-1.57-0.090 2.906 1.874 6.35 2.944 10.064 2.944 12.072 0 18.672-10 18.672-18.668 0-0.29-0.010-0.57-0.024-0.848 1.302-0.924 2.396-2.078 3.288-3.406z"></path>
		</symbol>
		<symbol id="icon-instagram" viewBox="0 0 32 32">
			<title>instagram</title>
			<path d="M22 0h-12c-5.522 0-10 4.478-10 10v12c0 5.522 4.478 10 10 10h12c5.522 0 10-4.478 10-10v-12c0-5.522-4.478-10-10-10zM29 22c0 3.86-3.14 7-7 7h-12c-3.86 0-7-3.14-7-7v-12c0-3.86 3.14-7 7-7h12c3.86 0 7 3.14 7 7v12z"></path>
			<path d="M16 8c-4.418 0-8 3.582-8 8s3.582 8 8 8 8-3.582 8-8-3.582-8-8-8zM16 21c-2.756 0-5-2.244-5-5 0-2.758 2.244-5 5-5s5 2.242 5 5c0 2.756-2.244 5-5 5z"></path>
			<path d="M25.666 7.4c0 0.589-0.477 1.066-1.066 1.066s-1.066-0.477-1.066-1.066c0-0.589 0.477-1.066 1.066-1.066s1.066 0.477 1.066 1.066z"></path>
		</symbol>
		<symbol id="icon-linkedin" viewBox="0 0 32 32">
			<title>iconmonstr-linkedin-1</title>
			<path d="M6.64 4.667c0 1.841-1.48 3.333-3.307 3.333s-3.307-1.492-3.307-3.333c0-1.84 1.48-3.333 3.307-3.333s3.307 1.493 3.307 3.333zM6.667 10.667h-6.667v21.333h6.667v-21.333zM17.309 10.667h-6.624v21.333h6.625v-11.199c0-6.227 8.039-6.736 8.039 0v11.199h6.651v-13.508c0-10.507-11.896-10.124-14.691-4.952v-2.873z"></path>
		</symbol>
		<symbol id="icon-pay-per-click" viewBox="0 0 32 32">
			<title>pay-per-click</title>
			<path d="M19.245 20.27q-0.878 0.833-2.545 1.010v1.652h-1.209v-1.637c-0.754-0.049-1.458-0.191-2.124-0.415l0.058 0.017c-0.595-0.183-1.112-0.465-1.556-0.831l0.008 0.006 0.664-1.49c0.381 0.302 0.82 0.553 1.295 0.732l0.034 0.011c0.475 0.19 1.026 0.323 1.6 0.373l0.022 0.002v-2.95c-0.676-0.153-1.26-0.342-1.819-0.577l0.072 0.027c-0.47-0.202-0.863-0.504-1.168-0.879l-0.004-0.006c-0.296-0.391-0.474-0.886-0.474-1.422 0-0.042 0.001-0.084 0.003-0.126l-0 0.006c-0-0.012-0-0.025-0-0.039 0-0.788 0.334-1.498 0.869-1.995l0.002-0.002q0.87-0.841 2.522-1.003v-1.667h1.208v1.637c0.588 0.032 1.139 0.132 1.664 0.293l-0.049-0.013c0.525 0.153 0.983 0.364 1.401 0.632l-0.021-0.013-0.605 1.49c-0.687-0.408-1.496-0.69-2.361-0.793l-0.029-0.003v2.979c0.684 0.153 1.272 0.341 1.838 0.573l-0.076-0.027c0.472 0.2 0.868 0.498 1.176 0.872l0.004 0.005c0.301 0.391 0.482 0.887 0.482 1.426 0 0.041-0.001 0.081-0.003 0.121l0-0.006c0 0.012 0 0.026 0 0.040 0 0.787-0.337 1.494-0.875 1.987l-0.002 0.002zM14.385 14.466c0.316 0.223 0.685 0.396 1.083 0.497l0.023 0.005v-2.625c-0.432 0.043-0.817 0.214-1.124 0.474l0.003-0.002c-0.227 0.212-0.369 0.513-0.369 0.848 0 0.008 0 0.016 0 0.024l-0-0.001c-0 0.007-0 0.016-0 0.025 0 0.309 0.15 0.584 0.381 0.754l0.003 0.002zM17.858 19.216c0.23-0.2 0.375-0.494 0.375-0.821 0-0.007-0-0.014-0-0.020v0.001c0-0.007 0-0.016 0-0.025 0-0.319-0.156-0.602-0.396-0.777l-0.003-0.002c-0.324-0.227-0.703-0.402-1.111-0.505l-0.024-0.005v2.611c0.442-0.041 0.839-0.206 1.163-0.461l-0.005 0.004zM3.933 8.17c0.070 0.049 0.156 0.078 0.249 0.078 0.148 0 0.279-0.074 0.358-0.187l0.001-0.001c0.385-0.55 0.773-1.031 1.19-1.485l-0.009 0.010c0.071-0.078 0.115-0.181 0.115-0.296 0-0.242-0.196-0.438-0.438-0.438-0.128 0-0.242 0.055-0.322 0.142l-0 0c-0.433 0.471-0.844 0.982-1.221 1.519l-0.032 0.048c-0.049 0.070-0.078 0.156-0.078 0.25 0 0.148 0.074 0.279 0.186 0.358l0.001 0.001zM27.951 25.92l1.989-1.095c0.136-0.076 0.226-0.219 0.226-0.383 0-0.201-0.136-0.371-0.321-0.422l-0.003-0.001-1.187-0.319c1.354-2.193 2.157-4.852 2.157-7.698 0-8.182-6.633-14.815-14.815-14.815-3.413 0-6.556 1.154-9.060 3.093l0.034-0.025c-0.105 0.081-0.171 0.206-0.171 0.347 0 0.242 0.196 0.438 0.438 0.438 0.101 0 0.194-0.034 0.268-0.091l-0.001 0.001c2.309-1.801 5.253-2.888 8.45-2.888 0.016 0 0.032 0 0.047 0h-0.002c7.697 0 13.937 6.24 13.937 13.938 0 2.769-0.807 5.349-2.199 7.518l0.033-0.055-5.154-1.382c-0.034-0.009-0.073-0.015-0.113-0.015-0.242 0-0.438 0.196-0.438 0.438 0 0.040 0.005 0.079 0.016 0.117l-0.001-0.003 0.334 1.246c0.052 0.188 0.221 0.324 0.423 0.324 0.242 0 0.438-0.196 0.438-0.438 0-0.040-0.005-0.079-0.016-0.116l0.001 0.003-0.138-0.514 5.445 1.46-1.547 0.852c-0.136 0.076-0.227 0.219-0.227 0.383 0 0.121 0.049 0.23 0.128 0.309l2.835 2.835-0.795 0.795-2.835-2.835c-0.079-0.079-0.189-0.128-0.309-0.128-0.164 0-0.307 0.091-0.382 0.224l-0.001 0.002-0.852 1.547-0.525-1.962c-0.052-0.188-0.221-0.324-0.423-0.324-0.242 0-0.438 0.196-0.438 0.438 0 0.040 0.005 0.079 0.016 0.116l-0.001-0.003 0.252 0.94c-2.113 1.357-4.692 2.163-7.459 2.163-7.7 0-13.942-6.242-13.942-13.942 0-2.046 0.441-3.989 1.232-5.739l-0.035 0.088c0.024-0.052 0.038-0.113 0.038-0.178 0-0.242-0.196-0.438-0.438-0.438-0.177 0-0.33 0.106-0.399 0.257l-0.001 0.003c-0.805 1.768-1.274 3.835-1.274 6.011 0 8.183 6.634 14.817 14.817 14.817 2.846 0 5.505-0.802 7.762-2.193l-0.064 0.037 0.318 1.188c0.052 0.188 0.221 0.324 0.423 0.324 0.164 0 0.307-0.090 0.382-0.224l0.001-0.002 1.096-1.989 2.732 2.732c0.079 0.079 0.189 0.128 0.309 0.128s0.23-0.049 0.309-0.128v0l1.413-1.413c0.079-0.079 0.128-0.189 0.128-0.309s-0.049-0.23-0.128-0.309v0zM16 6.35c0.242 0 0.438-0.196 0.438-0.438v0-2.131c0-0.242-0.196-0.438-0.438-0.438s-0.438 0.196-0.438 0.438v0 2.131c0 0 0 0 0 0 0 0.242 0.196 0.438 0.438 0.438v0zM23.443 9.175l1.507-1.505c0.079-0.079 0.128-0.189 0.128-0.31 0-0.242-0.196-0.438-0.438-0.438-0.121 0-0.23 0.049-0.31 0.128v0l-1.506 1.507c-0.090 0.080-0.146 0.197-0.146 0.326 0 0.242 0.196 0.438 0.438 0.438 0.129 0 0.246-0.056 0.326-0.146l0-0zM28.218 16.436c0.242 0 0.438-0.196 0.438-0.438s-0.196-0.438-0.438-0.438v0h-2.131c-0.242 0-0.438 0.196-0.438 0.438s0.196 0.438 0.438 0.438v0zM15.563 28.219c0 0.242 0.196 0.438 0.438 0.438s0.438-0.196 0.438-0.438v0-2.131c0-0.242-0.196-0.438-0.438-0.438s-0.438 0.196-0.438 0.438v0zM7.050 24.95c0.079 0.079 0.188 0.128 0.309 0.128s0.23-0.049 0.309-0.128v0l1.507-1.507c0.069-0.077 0.111-0.179 0.111-0.292 0-0.242-0.196-0.438-0.438-0.438-0.112 0-0.215 0.042-0.292 0.112l0-0-1.507 1.506c-0.079 0.079-0.129 0.189-0.129 0.31s0.049 0.231 0.129 0.31v0zM3.781 16.438h2.131c0.242 0 0.438-0.196 0.438-0.438s-0.196-0.438-0.438-0.438v0h-2.131c-0.242 0-0.438 0.196-0.438 0.438s0.196 0.438 0.438 0.438v0zM8.557 9.175c0.077 0.069 0.179 0.111 0.292 0.111 0.242 0 0.438-0.196 0.438-0.438 0-0.112-0.042-0.215-0.112-0.292l0 0-1.506-1.507c-0.079-0.079-0.189-0.128-0.31-0.128-0.242 0-0.438 0.196-0.438 0.438 0 0.121 0.049 0.231 0.128 0.31v0z"></path>
		</symbol>
		<symbol id="icon-bullseye" viewBox="0 0 32 32">
			<title>bullseye</title>
			<path d="M31.987 15.576c-0.295-6.381-5.706-11.315-12.087-11.020-5.969 0.276-10.745 5.052-11.020 11.020h-1.638l-1.547-2.494c-0.097-0.157-0.269-0.252-0.453-0.252h-4.706c-0.295-0-0.533 0.239-0.533 0.533 0 0.099 0.028 0.197 0.080 0.281l1.54 2.482-1.54 2.483c-0.155 0.25-0.078 0.579 0.172 0.734 0.084 0.052 0.182 0.080 0.281 0.080h4.705c0.185 0 0.356-0.095 0.453-0.252l1.567-2.528h1.617c0.295 6.381 5.706 11.315 12.087 11.020s11.315-5.706 11.021-12.087zM4.945 18.357h-3.452l1.042-1.68h3.45l-1.040 1.68zM2.537 15.576l-1.044-1.68h3.452l1.042 1.68h-3.45zM20.46 26.61c-5.597 0.007-10.216-4.377-10.5-9.967h2.179c0.295 4.585 4.251 8.064 8.836 7.769s8.064-4.251 7.769-8.836-4.251-8.064-8.836-7.769c-4.175 0.268-7.501 3.595-7.769 7.769h-2.179c0.286-5.578 4.887-9.957 10.473-9.966 5.799-0.008 10.506 4.687 10.514 10.486s-4.687 10.506-10.486 10.514zM20.433 15.576h-0.546c0.295-0.303 0.779-0.31 1.082-0.016s0.31 0.779 0.016 1.082-0.779 0.31-1.082 0.016c-0.005-0.005-0.010-0.010-0.016-0.016h0.546c0.295 0 0.533-0.239 0.533-0.533s-0.239-0.533-0.533-0.533zM20.977 17.862c0.968-0.295 1.513-1.318 1.219-2.285s-1.318-1.513-2.285-1.219c-0.584 0.178-1.041 0.635-1.219 1.219h-2.229c0.295-2.195 2.312-3.735 4.507-3.441s3.735 2.312 3.441 4.507-2.312 3.735-4.507 3.441c-1.791-0.24-3.2-1.649-3.441-3.441h2.229c0.295 0.968 1.318 1.513 2.285 1.219zM20.967 21.158c2.788-0.295 4.809-2.793 4.515-5.581s-2.793-4.809-5.581-4.515c-2.381 0.252-4.263 2.133-4.515 4.515h-2.18c0.295-3.995 3.772-6.995 7.767-6.7s6.995 3.772 6.7 7.767-3.772 6.995-7.767 6.7c-3.585-0.264-6.436-3.115-6.7-6.7h2.18c0.295 2.788 2.793 4.809 5.581 4.515z"></path>
			<path d="M5.333 0h4.267v1.067h-4.267v-1.067z"></path>
			<path d="M9.6 3.734h4.267v1.067h-4.267v-1.067z"></path>
			<path d="M3.2 0h1.067v1.067h-1.067v-1.067z"></path>
			<path d="M2.133 10.133h4.267v1.067h-4.267v-1.067z"></path>
			<path d="M0 10.133h1.067v1.067h-1.067v-1.067z"></path>
			<path d="M4.267 21.866h3.2v1.067h-3.2v-1.067z"></path>
			<path d="M2.133 21.866h1.067v1.067h-1.067v-1.067z"></path>
			<path d="M10.666 26.666h1.067v1.067h-1.067v-1.067z"></path>
			<path d="M2.133 30.933h4.267v1.067h-4.267v-1.067z"></path>
			<path d="M0 30.933h1.067v1.067h-1.067v-1.067z"></path>
		</symbol>
		<symbol id="icon-digital-marketing" viewBox="0 0 32 32">
			<title>digital-marketing</title>
			<path d="M15.711 27.049c-0.116-0.116-0.277-0.183-0.442-0.183s-0.326 0.067-0.442 0.183c-0.116 0.116-0.183 0.277-0.183 0.442s0.067 0.326 0.183 0.442c0.116 0.117 0.277 0.183 0.442 0.183s0.326-0.066 0.442-0.183c0.116-0.116 0.183-0.277 0.183-0.442s-0.067-0.326-0.183-0.442z"></path>
			<path d="M18.686 21.284v-4.599c0-0.208-0.103-0.402-0.275-0.518s-0.391-0.139-0.583-0.062l-10.77 4.337h-3.469c-1.979 0-3.59 1.61-3.59 3.59s1.61 3.59 3.59 3.59h0.413v3.753c0 0.345 0.28 0.625 0.625 0.625h2.551c0.345 0 0.625-0.28 0.625-0.625v-3.452l10.024 4.032c0.075 0.030 0.154 0.045 0.233 0.045 0.123 0 0.245-0.036 0.35-0.107 0.172-0.116 0.275-0.31 0.275-0.518v-4.599c1.253-0.285 2.192-1.408 2.192-2.746s-0.939-2.461-2.192-2.746zM6.554 30.75h-1.301v-3.128h1.301v3.128zM6.554 26.372h-2.965c-1.29 0-2.34-1.050-2.34-2.34s1.050-2.34 2.34-2.34h2.965l-0 4.679zM17.436 30.45h-0l-9.632-3.874v-5.087l6.839-2.754v6.203c0 0.345 0.28 0.625 0.625 0.625s0.625-0.28 0.625-0.625v-6.706l1.543-0.621v12.84zM18.686 25.466v-2.873c0.554 0.242 0.942 0.795 0.942 1.437s-0.388 1.195-0.942 1.437z"></path>
			<path d="M26.841 23.423h-3.539c-0.345 0-0.625 0.28-0.625 0.625s0.28 0.625 0.625 0.625h3.539c0.345 0 0.625-0.28 0.625-0.625s-0.28-0.625-0.625-0.625z"></path>
			<path d="M23.939 18.844c-0.244-0.244-0.64-0.244-0.884 0l-1.221 1.221c-0.244 0.244-0.244 0.64 0 0.884 0.122 0.122 0.282 0.183 0.442 0.183s0.32-0.061 0.442-0.183l1.221-1.221c0.244-0.244 0.244-0.64 0-0.884z"></path>
			<path d="M23.985 28.311l-1.261-1.262c-0.244-0.244-0.64-0.244-0.884 0s-0.244 0.64 0 0.884l1.262 1.262c0.122 0.122 0.282 0.183 0.442 0.183s0.32-0.061 0.442-0.183c0.244-0.244 0.244-0.64 0-0.884z"></path>
			<path d="M29.5 0h-11.625c-1.378 0-2.5 1.121-2.5 2.5v0.25h-10.5c-0.827 0-1.5 0.673-1.5 1.5v9.875c0 0.827 0.673 1.5 1.5 1.5h0.646v1.917c0 0.253 0.152 0.481 0.386 0.577 0.077 0.032 0.159 0.048 0.239 0.048 0.163 0 0.322-0.064 0.442-0.183l2.359-2.359h12.415c0.827 0 1.5-0.673 1.5-1.5v-1.875h6.639c1.378 0 2.5-1.121 2.5-2.5v-7.25c-0-1.379-1.122-2.5-2.5-2.5zM21.611 14.125c0 0.138-0.112 0.25-0.25 0.25h-12.674c-0.166 0-0.325 0.066-0.442 0.183l-1.475 1.475v-1.033c0-0.345-0.28-0.625-0.625-0.625h-1.271c-0.138 0-0.25-0.112-0.25-0.25v-9.875c0-0.138 0.112-0.25 0.25-0.25h10.5v5.75c0 1.379 1.121 2.5 2.5 2.5h3.736v1.875zM30.75 9.75c0 0.689-0.561 1.25-1.25 1.25h-11.625c-0.689 0-1.25-0.561-1.25-1.25v-7.25c0-0.689 0.561-1.25 1.25-1.25h11.625c0.689 0 1.25 0.561 1.25 1.25v7.25z"></path>
			<path d="M26.198 5.584l-4.277-2.47c-0.193-0.112-0.432-0.112-0.625 0s-0.313 0.318-0.313 0.541v4.939c0 0.223 0.119 0.43 0.313 0.541 0.097 0.056 0.205 0.084 0.313 0.084s0.216-0.028 0.313-0.084l4.277-2.47c0.193-0.112 0.313-0.318 0.313-0.541s-0.119-0.43-0.313-0.541zM22.233 7.512v-2.774l2.402 1.387-2.402 1.387z"></path>
			<path d="M13.407 6.563h-6.25c-0.345 0-0.625 0.28-0.625 0.625s0.28 0.625 0.625 0.625h6.25c0.345 0 0.625-0.28 0.625-0.625s-0.28-0.625-0.625-0.625z"></path>
			<path d="M13.849 10.246c-0.116-0.116-0.277-0.183-0.442-0.183s-0.326 0.067-0.442 0.183c-0.116 0.116-0.183 0.277-0.183 0.442s0.067 0.326 0.183 0.442c0.116 0.116 0.277 0.183 0.442 0.183s0.326-0.067 0.442-0.183c0.116-0.116 0.183-0.277 0.183-0.442s-0.067-0.326-0.183-0.442z"></path>
			<path d="M11.063 10.062h-3.906c-0.345 0-0.625 0.28-0.625 0.625s0.28 0.625 0.625 0.625h3.906c0.345 0 0.625-0.28 0.625-0.625s-0.28-0.625-0.625-0.625z"></path>
		</symbol>
		<symbol id="icon-speed" viewBox="0 0 32 32">
			<title>speed</title>
			<path d="M10.167 12.475c-0.085-0.167-0.252-0.277-0.439-0.29l-4.487-0.299c-0.232-0.023-0.447 0.121-0.532 0.338l-3.234 8.266c-0.087 0.222-0.016 0.474 0.174 0.619 0.095 0.073 0.209 0.109 0.323 0.109 0.113 0 0.225-0.035 0.32-0.107l2.685-2.013 1.563 0.313c0.255 0.051 0.51-0.089 0.603-0.333 0.839-2.199 1.85-4.243 3.002-6.076 0.1-0.159 0.109-0.359 0.023-0.526zM6.308 18.276l-1.358-0.271c-0.148-0.029-0.303 0.006-0.425 0.096l-1.375 1.031 2.409-6.156 3.22 0.214c-0.928 1.571-1.757 3.276-2.471 5.086z"></path>
			<path d="M20.114 26.759l-0.299-4.487c-0.013-0.188-0.123-0.355-0.29-0.44s-0.367-0.077-0.526 0.023c-1.833 1.152-3.878 2.163-6.076 3.002-0.243 0.092-0.384 0.347-0.333 0.603l0.313 1.563-2.013 2.684c-0.143 0.191-0.142 0.453 0.002 0.643 0.103 0.135 0.261 0.211 0.425 0.211 0.065 0 0.131-0.012 0.195-0.036l8.266-3.234c0.216-0.085 0.353-0.3 0.338-0.532zM12.867 28.848l1.031-1.375c0.091-0.121 0.126-0.276 0.096-0.424l-0.271-1.357c1.81-0.715 3.515-1.543 5.085-2.471l0.215 3.219-6.156 2.409z"></path>
			<path d="M15.465 16h-3.593c-0.194 0-0.372 0.105-0.466 0.274l-4.51 8.104c-0.117 0.211-0.078 0.476 0.096 0.643 0.102 0.098 0.236 0.149 0.37 0.149 0.095 0 0.19-0.025 0.276-0.077l8.104-4.904c0.159-0.096 0.257-0.269 0.257-0.456v-3.2c0-0.294-0.239-0.533-0.533-0.533zM14.932 19.433l-6.127 3.708 3.38-6.074h2.747v2.366z"></path>
			<path d="M31.973 0.514c-0.022-0.26-0.228-0.466-0.487-0.487-0.177-0.014-17.739-1.24-25.34 18.67-0.075 0.197-0.028 0.419 0.121 0.567l2.536 2.536c0.119 0.119 0.285 0.173 0.452 0.151 0.166-0.024 0.311-0.124 0.392-0.271l2.541-4.613h2.745v2.373l-4.641 2.93c-0.137 0.087-0.227 0.231-0.245 0.392s0.038 0.322 0.153 0.436l2.536 2.536c0.102 0.102 0.238 0.156 0.377 0.156 0.064 0 0.129-0.011 0.19-0.035 19.911-7.602 18.685-25.164 18.67-25.34zM29.175 9.976c-1.871 4.63-6.154 10.925-15.932 14.758l-1.819-1.819 4.325-2.73c0.155-0.098 0.248-0.268 0.248-0.451v-3.2c0-0.294-0.239-0.533-0.533-0.533h-3.594c-0.195 0-0.373 0.106-0.467 0.276l-2.35 4.267-1.788-1.789c6.673-17.024 20.897-17.72 23.662-17.681 0.020 1.244-0.094 4.799-1.752 8.901z"></path>
			<path d="M9.135 23.554c-0.116-0.154-0.3-0.228-0.481-0.209 0.019-0.181-0.056-0.365-0.209-0.481-0.804-0.608-1.842-0.81-2.848-0.555-1.068 0.271-1.942 1-2.396 2l-3.153 6.937c-0.092 0.203-0.049 0.441 0.108 0.598 0.102 0.102 0.238 0.156 0.377 0.156 0.075 0 0.15-0.016 0.221-0.048l6.937-3.153c0.999-0.454 1.728-1.327 1.999-2.396 0.255-1.005 0.053-2.044-0.555-2.848zM8.656 26.14c-0.191 0.753-0.704 1.367-1.407 1.687l-5.642 2.565 2.565-5.643c0.319-0.703 0.935-1.216 1.687-1.407 0.198-0.050 0.397-0.075 0.593-0.075 0.332 0 0.657 0.071 0.953 0.209l-0.508 0.899c-0.118 0.209-0.082 0.47 0.087 0.639 0.17 0.17 0.431 0.205 0.639 0.087l0.899-0.508c0.219 0.47 0.268 1.014 0.133 1.546z"></path>
			<path d="M31.973 0.515c-0.022-0.26-0.228-0.466-0.487-0.487-0.208-0.017-5.152-0.391-10.966 2.287-0.158 0.072-0.271 0.219-0.302 0.39s0.025 0.348 0.148 0.471l8.458 8.458c0.101 0.101 0.237 0.156 0.377 0.156 0.031 0 0.063-0.003 0.094-0.008 0.172-0.031 0.317-0.143 0.39-0.302 2.679-5.814 2.304-10.758 2.287-10.966zM29.028 10.329l-7.357-7.357c4.256-1.797 7.983-1.92 9.257-1.899 0.021 1.275-0.099 4.991-1.9 9.256z"></path>
			<path d="M23.552 8.447c-1.793-1.793-4.711-1.793-6.505 0s-1.793 4.711 0 6.505c0.896 0.897 2.075 1.345 3.252 1.345s2.356-0.448 3.253-1.345c1.793-1.793 1.793-4.711 0-6.505zM22.798 14.198c-1.378 1.377-3.619 1.377-4.996 0s-1.378-3.619 0-4.996c0.689-0.688 1.593-1.033 2.498-1.033s1.809 0.345 2.498 1.033c1.377 1.377 1.377 3.619-0 4.996z"></path>
			<path d="M21.36 12.76c-0.584 0.586-1.536 0.585-2.121 0s-0.584-1.536 0-2.121c0.584-0.585 1.536-0.585 2.121 0 0.208 0.209 0.546 0.209 0.754 0s0.209-0.546 0-0.754c-1-1-2.629-1-3.629 0s-1 2.629 0 3.629c0.5 0.5 1.158 0.75 1.815 0.75s1.315-0.25 1.814-0.75c0.209-0.209 0.209-0.546 0-0.754s-0.546-0.209-0.754 0z"></path>
		</symbol>
		<symbol id="icon-website" viewBox="0 0 32 32">
			<title>website</title>
			<path d="M25.726 3.524h-12.948c-0.345 0-0.624 0.279-0.624 0.624s0.279 0.624 0.624 0.624h12.948c0.345 0 0.624-0.279 0.624-0.624s-0.279-0.624-0.624-0.624z"></path>
			<path d="M6.452 3.706c-0.116-0.116-0.277-0.183-0.441-0.183s-0.325 0.067-0.441 0.183c-0.116 0.116-0.183 0.276-0.183 0.441s0.067 0.325 0.183 0.441c0.116 0.116 0.277 0.183 0.441 0.183s0.325-0.067 0.441-0.183c0.116-0.116 0.183-0.277 0.183-0.441s-0.067-0.325-0.183-0.441z"></path>
			<path d="M4.16 3.706c-0.116-0.116-0.277-0.183-0.441-0.183s-0.325 0.067-0.441 0.183c-0.116 0.116-0.183 0.277-0.183 0.441s0.067 0.325 0.183 0.441c0.116 0.116 0.277 0.183 0.441 0.183s0.325-0.067 0.441-0.183c0.116-0.116 0.183-0.277 0.183-0.441s-0.067-0.325-0.183-0.441z"></path>
			<path d="M8.745 3.706c-0.117-0.116-0.277-0.183-0.442-0.183s-0.324 0.067-0.441 0.183c-0.116 0.116-0.183 0.277-0.183 0.441s0.067 0.325 0.183 0.441c0.117 0.116 0.277 0.183 0.441 0.183s0.325-0.067 0.442-0.183c0.116-0.116 0.182-0.277 0.182-0.441s-0.066-0.325-0.182-0.441z"></path>
			<path d="M31.817 27.26l-4.911-4.911 0.77-0.77c0-0 0-0 0.001-0.001s0-0 0.001-0.001l0.77-0.77 2.426 2.426c0.244 0.244 0.639 0.244 0.882 0s0.244-0.639 0-0.882l-2.867-2.867c-0.244-0.244-0.638-0.244-0.882 0l-0.771 0.771-0.373-0.373c1.073-1.272 1.72-2.913 1.72-4.703 0-4.028-3.277-7.305-7.305-7.305-2.075 0-3.951 0.87-5.282 2.264-0.006-0-0.012-0.001-0.017-0.001h-11.985c-0.345 0-0.624 0.279-0.624 0.624v8.733c0 0.345 0.279 0.624 0.624 0.624h11.907c1.336 1.454 3.252 2.366 5.378 2.366 1.79 0 3.431-0.648 4.703-1.72l0.373 0.373-0.771 0.771c-0.117 0.117-0.183 0.276-0.183 0.441s0.066 0.324 0.183 0.441l2.614 2.614v2.698c0 0.757-0.616 1.372-1.372 1.372h-24.204c-0.757 0-1.372-0.616-1.372-1.372v-21.086c0.002 0 0.005 0 0.007 0h26.942v2.812c0 0.345 0.279 0.624 0.624 0.624s0.624-0.279 0.624-0.624v-5.931c0-1.445-1.175-2.62-2.62-2.62h-24.204c-1.445 0-2.62 1.175-2.62 2.62v24.204c0 1.445 1.175 2.62 2.62 2.62h24.204c1.445 0 2.62-1.175 2.62-2.62v-1.45l1.491 1.491c0.122 0.122 0.281 0.183 0.441 0.183s0.319-0.061 0.441-0.183c0.244-0.244 0.244-0.639 0-0.882zM13.975 15.368l-0.786-1.519c-0.158-0.306-0.535-0.426-0.841-0.267s-0.426 0.535-0.267 0.841l1.465 2.83c0.111 0.214 0.329 0.337 0.554 0.337 0.088 0 0.177-0.020 0.261-0.059 0.16 0.469 0.367 0.917 0.615 1.338h-10.359v-7.486h10.421c-0.675 1.107-1.065 2.406-1.065 3.795 0 0.064 0.001 0.127 0.002 0.19zM21.277 21.236c-3.34 0-6.058-2.717-6.058-6.058 0-0.048 0.001-0.095 0.002-0.142l1.148 2.217c0.107 0.207 0.321 0.337 0.554 0.337 0.003 0 0.006 0 0.009-0 0.236-0.004 0.451-0.14 0.553-0.354l1.359-2.83c0.149-0.311 0.018-0.683-0.292-0.832s-0.683-0.018-0.832 0.292l-0.818 1.702-0.89-1.719c-0.112-0.216-0.332-0.338-0.56-0.337 0.725-2.533 3.062-4.393 5.825-4.393 3.34 0 6.058 2.718 6.058 6.058s-2.718 6.058-6.058 6.058zM1.248 3.898c0-0.757 0.616-1.372 1.372-1.372h24.204c0.757 0 1.372 0.616 1.372 1.372v1.871h-26.942c-0.002 0-0.005 0-0.007 0v-1.872z"></path>
			<path d="M11.405 13.574c-0.31-0.149-0.683-0.018-0.832 0.292l-0.818 1.702-0.89-1.719c-0.109-0.21-0.326-0.341-0.563-0.337s-0.451 0.14-0.553 0.354l-0.818 1.702-0.89-1.719c-0.158-0.306-0.535-0.426-0.841-0.267s-0.426 0.535-0.267 0.841l1.465 2.83c0.109 0.21 0.328 0.341 0.563 0.337s0.451-0.14 0.553-0.354l0.818-1.702 0.89 1.719c0.107 0.207 0.321 0.337 0.554 0.337 0.003 0 0.006 0 0.009-0 0.236-0.004 0.451-0.14 0.553-0.354l1.359-2.83c0.149-0.31 0.018-0.683-0.292-0.832z"></path>
			<path d="M25.7 13.574c-0.311-0.149-0.683-0.018-0.832 0.292l-0.818 1.702-0.89-1.719c-0.109-0.21-0.329-0.34-0.563-0.337-0.236 0.004-0.451 0.14-0.553 0.354l-0.818 1.702-0.89-1.719c-0.158-0.306-0.535-0.426-0.841-0.267s-0.426 0.535-0.267 0.841l1.465 2.83c0.107 0.207 0.321 0.337 0.554 0.337 0.003 0 0.006 0 0.009-0 0.236-0.004 0.451-0.14 0.553-0.354l0.818-1.702 0.89 1.719c0.107 0.207 0.321 0.337 0.554 0.337 0.003 0 0.006 0 0.009-0 0.236-0.004 0.451-0.14 0.553-0.354l1.359-2.83c0.149-0.311 0.018-0.683-0.292-0.832z"></path>
			<path d="M4.433 25.041c-0.116-0.117-0.277-0.183-0.441-0.183s-0.325 0.066-0.441 0.183c-0.116 0.116-0.183 0.277-0.183 0.441s0.067 0.325 0.183 0.441c0.116 0.116 0.277 0.183 0.441 0.183s0.325-0.067 0.441-0.183c0.116-0.116 0.183-0.277 0.183-0.441s-0.067-0.325-0.183-0.441z"></path>
			<path d="M18.282 24.859h-12.148c-0.345 0-0.624 0.279-0.624 0.624s0.279 0.624 0.624 0.624h12.148c0.345 0 0.624-0.279 0.624-0.624s-0.279-0.624-0.624-0.624z"></path>
			<path d="M15.97 21.864h-3.681c-0.345 0-0.624 0.279-0.624 0.624s0.279 0.624 0.624 0.624h3.681c0.345 0 0.624-0.279 0.624-0.624s-0.279-0.624-0.624-0.624z"></path>
			<path d="M9.488 21.864h-5.495c-0.345 0-0.624 0.279-0.624 0.624s0.279 0.624 0.624 0.624h5.495c0.345 0 0.624-0.279 0.624-0.624s-0.279-0.624-0.624-0.624z"></path>
		</symbol>
		<symbol id="icon-next" viewBox="0 0 32 32">
			<title>next</title>
			<path d="M23.224 7.224l-1.425 1.425 6.343 6.343h-28.141v2.016h28.141l-6.343 6.343 1.425 1.425 8.776-8.776z"></path>
		</symbol>
		<symbol id="icon-startup" viewBox="0 0 32 32">
			<title>startup-1</title>
			<path d="M5.336 6.936c-0.294 0-0.533-0.239-0.533-0.533h-1.066c0.003 0.676 0.43 1.276 1.066 1.501v0.631h1.066v-0.631c0.734-0.259 1.174-1.009 1.043-1.776s-0.798-1.327-1.576-1.325c-0.294 0-0.533-0.239-0.533-0.533s0.239-0.533 0.533-0.533c0.294 0 0.533 0.239 0.533 0.533h1.066c-0.003-0.675-0.43-1.276-1.066-1.501v-0.631h-1.066v0.631c-0.734 0.259-1.174 1.009-1.042 1.776s0.797 1.327 1.576 1.325c0.294 0 0.533 0.239 0.533 0.533s-0.239 0.533-0.533 0.533z"></path>
			<path d="M30.428 22.891c1.038-2.149 1.574-4.505 1.567-6.891 0.003-4.618-1.994-9.011-5.476-12.044 0.093-0.24 0.142-0.495 0.144-0.752 0.002-0.852-0.504-1.622-1.286-1.959s-1.69-0.174-2.307 0.413c-2.199-1.085-4.618-1.651-7.071-1.653-2.386-0.007-4.743 0.529-6.891 1.567-1.345-1.353-3.31-1.884-5.154-1.392s-3.283 1.932-3.775 3.775c-0.492 1.843 0.039 3.809 1.392 5.154-1.038 2.148-1.574 4.505-1.567 6.891-0.003 4.618 1.994 9.011 5.476 12.044-0.093 0.24-0.142 0.495-0.144 0.752-0.002 0.852 0.504 1.623 1.286 1.959s1.69 0.174 2.307-0.413c2.199 1.085 4.618 1.651 7.070 1.653 2.386 0.007 4.743-0.529 6.891-1.567 1.345 1.353 3.31 1.884 5.154 1.392s3.283-1.931 3.775-3.775c0.492-1.843-0.039-3.809-1.392-5.154zM24.531 2.137c0.589 0 1.066 0.477 1.066 1.066s-0.477 1.066-1.066 1.066c-0.589 0-1.066-0.477-1.066-1.066s0.477-1.066 1.066-1.066zM1.071 5.336c0-2.356 1.91-4.265 4.265-4.265s4.265 1.91 4.265 4.265c0 2.356-1.91 4.265-4.265 4.265-2.354-0.003-4.263-1.911-4.265-4.265zM7.469 29.863c-0.589 0-1.066-0.477-1.066-1.066s0.477-1.066 1.066-1.066c0.589 0 1.066 0.477 1.066 1.066s-0.477 1.066-1.066 1.066zM16 30.929c-2.254 0.006-4.48-0.506-6.505-1.497 0.068-0.205 0.104-0.42 0.106-0.636 0-1.178-0.955-2.133-2.133-2.133-0.501 0.002-0.986 0.183-1.367 0.509-3.202-2.83-5.034-6.899-5.032-11.173-0.006-2.142 0.456-4.258 1.354-6.202 2.11 1.382 4.9 1.094 6.684-0.689s2.071-4.574 0.689-6.684c4.044-1.853 8.706-1.801 12.707 0.143-0.068 0.205-0.104 0.42-0.107 0.636 0 1.178 0.955 2.133 2.133 2.133 0.502-0.002 0.986-0.183 1.367-0.509 3.202 2.83 5.035 6.899 5.032 11.173 0.006 2.142-0.456 4.258-1.354 6.203-2.11-1.382-4.9-1.094-6.683 0.689s-2.071 4.574-0.689 6.683c-1.944 0.898-4.061 1.36-6.203 1.354zM26.663 30.929c-2.356 0-4.265-1.91-4.265-4.265s1.91-4.265 4.265-4.265c2.356 0 4.265 1.91 4.265 4.265-0.003 2.355-1.911 4.263-4.265 4.265z"></path>
			<path d="M26.663 25.064c0.294 0 0.533 0.239 0.533 0.533h1.066c-0.003-0.675-0.43-1.276-1.066-1.501v-0.631h-1.066v0.631c-0.734 0.259-1.174 1.009-1.042 1.776s0.797 1.327 1.576 1.325c0.294 0 0.533 0.239 0.533 0.533s-0.239 0.533-0.533 0.533c-0.294 0-0.533-0.239-0.533-0.533h-1.066c0.003 0.676 0.43 1.276 1.066 1.501v0.631h1.066v-0.631c0.734-0.259 1.174-1.009 1.043-1.776s-0.798-1.327-1.576-1.325c-0.294 0-0.533-0.239-0.533-0.533s0.239-0.533 0.533-0.533z"></path>
			<path d="M16 5.336c5.348 0.009 9.864 3.975 10.563 9.277l-0.587-0.586-0.754 0.754 1.6 1.6c0.208 0.208 0.546 0.208 0.754 0l1.6-1.6-0.754-0.754-0.756 0.75c-0.387-3.679-2.486-6.959-5.663-8.853s-7.061-2.179-10.481-0.769l0.407 0.986c1.291-0.534 2.674-0.807 4.071-0.804z"></path>
			<path d="M16 26.663c-3.557-0.002-6.88-1.776-8.86-4.732s-2.356-6.704-1.004-9.994l-0.986-0.406c-1.487 3.62-1.073 7.742 1.105 10.993s5.832 5.203 9.745 5.205c0.741 0 1.48-0.070 2.208-0.207l-0.199-1.048c-0.663 0.126-1.335 0.189-2.010 0.189z"></path>
			<path d="M19.056 26.219l0.306 1.022c0.366-0.106 0.729-0.237 1.078-0.38l-0.404-0.987c-0.317 0.13-0.646 0.246-0.979 0.345z"></path>
			<path d="M19.591 16.933l2.204-2.204c0.379-0.376 0.635-0.858 0.733-1.383 0.523-2.779-0.086-3.388-0.286-3.588s-0.808-0.809-3.588-0.287c-0.525 0.099-1.007 0.355-1.382 0.734l-2.204 2.204c-0.469-0.36-1.097-0.433-1.636-0.191l-2.773 1.261c-0.318 0.145-0.545 0.436-0.607 0.78s0.048 0.697 0.295 0.944l1.341 1.342c0.1 0.1 0.236 0.156 0.377 0.156 0.057 0 0.115-0.009 0.169-0.027l0.587-0.196-0.48 0.96c-0.53 0.022-1.032 0.241-1.408 0.615-0.777 0.777-1.675 2.849-0.754 3.77 0.292 0.27 0.68 0.41 1.076 0.389 0.329-0.006 0.656-0.062 0.969-0.166 0.64-0.194 1.229-0.528 1.724-0.977 0.374-0.375 0.592-0.878 0.613-1.407l0.96-0.48-0.196 0.587c-0.064 0.192-0.014 0.403 0.129 0.546l1.341 1.341c0.2 0.2 0.471 0.313 0.754 0.312 0.064 0 0.128-0.006 0.191-0.017 0.344-0.063 0.636-0.29 0.78-0.608l1.261-2.773c0.243-0.538 0.171-1.166-0.188-1.636zM18.026 10.959c0.224-0.226 0.512-0.38 0.825-0.439 1.759-0.33 2.496-0.149 2.637-0.008s0.323 0.877-0.008 2.638c-0.059 0.313-0.212 0.601-0.439 0.825l-4.456 4.455-1.131-1.131 2.262-2.262-0.754-0.754-2.262 2.262-1.131-1.131zM13.948 18.053l-0.48-0.48 0.249-0.507 1.217 1.217-0.503 0.252zM12.207 15.557l-1.108-1.108 2.773-1.261c0.133-0.059 0.284-0.060 0.418-0.004l-1.852 1.851c-0.126 0.129-0.176 0.313-0.135 0.488zM13.193 20.315c-0.375 0.327-0.815 0.57-1.291 0.714-0.564 0.178-0.889 0.122-0.97 0.040s-0.138-0.407 0.040-0.97c0.143-0.476 0.387-0.917 0.714-1.292 0.416-0.416 1.091-0.416 1.507 0s0.416 1.091 0 1.507zM18.811 18.128l-1.261 2.772-1.107-1.108 0.033-0.099c0.036 0.011 0.073 0.019 0.111 0.022 0.141 0 0.277-0.056 0.377-0.156l1.851-1.852c0.057 0.134 0.055 0.286-0.004 0.419z"></path>
			<path d="M19.603 13.996c0.763-0.001 1.42-0.54 1.568-1.288s-0.253-1.498-0.958-1.789-1.518-0.045-1.942 0.59c-0.424 0.635-0.34 1.48 0.2 2.020 0.3 0.3 0.707 0.468 1.131 0.468zM19.226 12.023c0.208-0.208 0.546-0.208 0.754 0s0.208 0.546 0 0.754-0.546 0.208-0.754 0c-0.101-0.1-0.157-0.236-0.157-0.378s0.056-0.278 0.157-0.378z"></path>
		</symbol>
		<symbol id="icon-down-arrow" viewBox="0 0 32 32">
			<title>down-arrow</title>
			<path d="M30.337 7.192l-14.337 14.29-14.337-14.29-1.663 1.669 16 15.948 16-15.948z"></path>
		</symbol>
		<symbol id="icon-internet" viewBox="0 0 32 32">
			<title>internet</title>
			<path d="M27.966 26.605c2.507-2.825 4.034-6.54 4.034-10.605 0-4.23-1.653-8.079-4.343-10.943 0 0 0-0.001 0-0.001-0.002-0.003-0.006-0.004-0.007-0.007-2.802-2.979-6.728-4.886-11.095-5.035l-0.001-0.001-0.312-0.008c-0.081-0.003-0.161-0.006-0.242-0.006s-0.162 0.003-0.242 0.006l-0.311 0.008-0.001 0.001c-4.367 0.15-8.293 2.056-11.095 5.035-0.002 0.003-0.006 0.004-0.007 0.007 0 0 0 0.001-0.001 0.001-2.691 2.863-4.344 6.712-4.344 10.942 0 4.066 1.527 7.78 4.034 10.605 0.003 0.005 0.003 0.010 0.007 0.015 0.010 0.014 0.024 0.020 0.035 0.033 2.817 3.149 6.859 5.178 11.37 5.332l0.001 0.001 0.311 0.008c0.081 0.002 0.162 0.005 0.243 0.005s0.162-0.003 0.242-0.006l0.311-0.008 0.001-0.001c4.516-0.155 8.562-2.188 11.379-5.343 0.007-0.009 0.019-0.012 0.025-0.022 0.004-0.004 0.004-0.010 0.008-0.015zM1.117 16.552h6.622c0.062 2.339 0.519 4.611 1.332 6.74-1.569 0.568-3.069 1.329-4.475 2.279-2.067-2.459-3.354-5.593-3.48-9.020zM4.898 6.082c1.373 0.893 2.834 1.608 4.359 2.142-0.934 2.266-1.45 4.709-1.517 7.225h-6.622c0.132-3.59 1.538-6.859 3.781-9.367zM30.883 15.448h-6.622c-0.067-2.516-0.584-4.959-1.517-7.225 1.524-0.534 2.986-1.249 4.359-2.142 2.243 2.508 3.649 5.777 3.781 9.367zM15.448 8.255c-1.595-0.045-3.161-0.283-4.674-0.708 1.118-2.294 2.697-4.365 4.674-6.089v6.797zM15.448 9.359v6.089h-6.605c0.068-2.399 0.571-4.726 1.471-6.883 1.658 0.481 3.38 0.746 5.134 0.793zM16.552 9.359c1.754-0.047 3.476-0.312 5.135-0.793 0.9 2.157 1.403 4.484 1.471 6.883h-6.606v-6.089zM16.552 8.255v-6.797c1.976 1.724 3.555 3.795 4.674 6.089-1.513 0.425-3.079 0.663-4.674 0.708zM22.295 7.212c-1.060-2.221-2.531-4.244-4.352-5.978 3.231 0.423 6.138 1.884 8.377 4.038-1.271 0.807-2.62 1.455-4.025 1.94zM9.705 7.212c-1.405-0.485-2.754-1.134-4.024-1.94 2.238-2.154 5.146-3.615 8.377-4.038-1.822 1.734-3.293 3.757-4.353 5.978zM8.843 16.552h6.605v5.538c-1.825 0.049-3.612 0.333-5.33 0.85-0.776-2.017-1.213-4.171-1.275-6.388zM15.448 23.193v7.348c-2.115-1.846-3.774-4.088-4.902-6.575 1.582-0.466 3.225-0.726 4.902-0.773zM16.552 30.541v-7.348c1.677 0.047 3.32 0.307 4.902 0.772-1.128 2.488-2.786 4.73-4.902 6.575zM16.552 22.090v-5.538h6.605c-0.062 2.217-0.499 4.372-1.276 6.389-1.718-0.518-3.505-0.802-5.33-0.851zM24.26 16.552h6.622c-0.126 3.426-1.412 6.561-3.48 9.020-1.406-0.95-2.906-1.711-4.475-2.279 0.814-2.129 1.27-4.402 1.332-6.74zM5.347 26.398c1.305-0.867 2.695-1.565 4.147-2.086 1.073 2.406 2.614 4.598 4.563 6.454-3.394-0.444-6.431-2.033-8.711-4.368zM17.943 30.766c1.95-1.856 3.49-4.048 4.563-6.454 1.452 0.521 2.841 1.219 4.147 2.086-2.28 2.335-5.317 3.924-8.711 4.368z"></path>
		</symbol>
	</defs>
</svg>
